<svg xmlns:xlink="http://www.w3.org/1999/xlink" version="1.1" style="font-family:'myriad-pro','myriad','myriad pro','lucida grande','helvetica neue','helvetica','sans-serif';font-size:12px;" xmlns="http://www.w3.org/2000/svg" width="600" height="400"><desc>Created with Highstock 4.2.3</desc><defs><clipPath id="highcharts-23"><rect x="0" y="0" width="547" height="252"></rect></clipPath><clipPath id="highcharts-24"><rect x="0" y="0" width="547" height="252"></rect></clipPath><clipPath id="highcharts-25"><rect x="0" y="0" width="547" height="40"></rect></clipPath></defs><g class="highcharts-range-selector-buttons" transform="translate(0,10)"><text x="43" y="15" style="color:#666;fill:#666;">Zoom</text><g class="highcharts-button"  states="[object Object]" style="cursor:pointer;text-align:center;" transform="translate(79,0)"><rect x="0" y="0" width="32" height="22" fill="#f7f7f7" rx="0" ry="0"></rect><text x="7.671875"  style="font-weight:normal;color:#444;fill:#444;" y="14">1m</text></g><g class="highcharts-button"  states="[object Object]" style="cursor:pointer;text-align:center;" transform="translate(116,0)"><rect x="0" y="0" width="32" height="22" fill="#f7f7f7" rx="0" ry="0"></rect><text x="7.671875"  style="font-weight:normal;color:#ccc;fill:#ccc;" y="14">3m</text></g><g class="highcharts-button"  states="[object Object]" style="cursor:pointer;text-align:center;" transform="translate(153,0)"><rect x="0" y="0" width="32" height="22" fill="#f7f7f7" rx="0" ry="0"></rect><text x="7.671875"  style="font-weight:normal;color:#ccc;fill:#ccc;" y="14">6m</text></g><g class="highcharts-button"  states="[object Object]" style="cursor:pointer;text-align:center;" transform="translate(190,0)"><rect x="0" y="0" width="32" height="22" fill="#f7f7f7" rx="0" ry="0"></rect><text x="4"  style="font-weight:normal;color:#ccc;fill:#ccc;" y="14">YTD</text></g><g class="highcharts-button"  states="[object Object]" style="cursor:pointer;text-align:center;" transform="translate(227,0)"><rect x="0" y="0" width="32" height="22" fill="#f7f7f7" rx="0" ry="0"></rect><text x="9.6640625"  style="font-weight:normal;color:#ccc;fill:#ccc;" y="14">1y</text></g><g class="highcharts-button"  states="[object Object]" style="cursor:pointer;text-align:center;" transform="translate(264,0)"><rect x="0" y="0" width="32" height="22" fill="#f7f7f7" rx="0" ry="0"></rect><text x="9.328125"  style="font-weight:normal;color:#ccc;fill:#ccc;" y="14">All</text></g></g><g class="highcharts-input-group" transform="translate(296,10)" visibility="hidden"><g style="fill:#666;" transform="translate(0,0)"><text x="2"  style="font-size:12px;font-family:'myriad-pro','myriad','myriad pro','lucida grande','helvetica neue','helvetica','sans-serif';color:#666;fill:#666;" y="14">From</text></g><g style="text-align:center;" transform="translate(35,0)"><rect x="0.5" y="0.5" width="94" height="21" fill="none" stroke="silver" stroke-width="1"></rect><text x="17.5703125"  style="font-size:12px;font-family:'myriad-pro','myriad','myriad pro','lucida grande','helvetica neue','helvetica','sans-serif';color:#444;fill:#444;" y="14"><tspan>Aug 7, 2017</tspan></text></g><g style="fill:#666;" transform="translate(139,0)"><text x="2"  style="font-size:12px;font-family:'myriad-pro','myriad','myriad pro','lucida grande','helvetica neue','helvetica','sans-serif';color:#666;fill:#666;" y="14">To</text></g><g style="text-align:center;" transform="translate(160,0)"><rect x="0.5" y="0.5" width="94" height="21" fill="none" stroke="silver" stroke-width="1"></rect><text x="18.9140625"  style="font-size:12px;font-family:'myriad-pro','myriad','myriad pro','lucida grande','helvetica neue','helvetica','sans-serif';color:#444;fill:#444;" y="14"><tspan>Oct 5, 2017</tspan></text></g></g><path fill="none" d="M 43 85 L 590 85" stroke="green" stroke-width="2" stroke-dasharray="8,6" ></path><g class="highcharts-grid" ><path fill="none" d="M 106.5 45 L 106.5 297" stroke="#D8D8D8" stroke-width="1"  opacity="1"></path><path fill="none" d="M 171.5 45 L 171.5 297" stroke="#D8D8D8" stroke-width="1"  opacity="1"></path><path fill="none" d="M 236.5 45 L 236.5 297" stroke="#D8D8D8" stroke-width="1"  opacity="1"></path><path fill="none" d="M 299.5 45 L 299.5 297" stroke="#D8D8D8" stroke-width="1"  opacity="1"></path><path fill="none" d="M 354.5 45 L 354.5 297" stroke="#D8D8D8" stroke-width="1"  opacity="1"></path><path fill="none" d="M 419.5 45 L 419.5 297" stroke="#D8D8D8" stroke-width="1"  opacity="1"></path><path fill="none" d="M 484.5 45 L 484.5 297" stroke="#D8D8D8" stroke-width="1"  opacity="1"></path><path fill="none" d="M 549.5 45 L 549.5 297" stroke="#D8D8D8" stroke-width="1"  opacity="1"></path></g><g class="highcharts-grid" ></g><g class="highcharts-grid" ><path fill="none" d="M 43 297.5 L 590 297.5" stroke="#E0E0E0" stroke-width="1" opacity="1"></path><path fill="none" d="M 43 289.5 L 590 289.5" stroke="#E0E0E0" stroke-width="1" opacity="1"></path><path fill="none" d="M 43 280.5 L 590 280.5" stroke="#E0E0E0" stroke-width="1" opacity="1"></path><path fill="none" d="M 43 272.5 L 590 272.5" stroke="#E0E0E0" stroke-width="1" opacity="1"></path><path fill="none" d="M 43 263.5 L 590 263.5" stroke="#E0E0E0" stroke-width="1" opacity="1"></path><path fill="none" d="M 43 255.5 L 590 255.5" stroke="#E0E0E0" stroke-width="1" opacity="1"></path><path fill="none" d="M 43 247.5 L 590 247.5" stroke="#E0E0E0" stroke-width="1" opacity="1"></path><path fill="none" d="M 43 238.5 L 590 238.5" stroke="#E0E0E0" stroke-width="1" opacity="1"></path><path fill="none" d="M 43 230.5 L 590 230.5" stroke="#E0E0E0" stroke-width="1" opacity="1"></path><path fill="none" d="M 43 221.5 L 590 221.5" stroke="#E0E0E0" stroke-width="1" opacity="1"></path><path fill="none" d="M 43 213.5 L 590 213.5" stroke="#E0E0E0" stroke-width="1" opacity="1"></path><path fill="none" d="M 43 205.5 L 590 205.5" stroke="#E0E0E0" stroke-width="1" opacity="1"></path><path fill="none" d="M 43 196.5 L 590 196.5" stroke="#E0E0E0" stroke-width="1" opacity="1"></path><path fill="none" d="M 43 188.5 L 590 188.5" stroke="#E0E0E0" stroke-width="1" opacity="1"></path><path fill="none" d="M 43 179.5 L 590 179.5" stroke="#E0E0E0" stroke-width="1" opacity="1"></path><path fill="none" d="M 43 171.5 L 590 171.5" stroke="#E0E0E0" stroke-width="1" opacity="1"></path><path fill="none" d="M 43 163.5 L 590 163.5" stroke="#E0E0E0" stroke-width="1" opacity="1"></path><path fill="none" d="M 43 154.5 L 590 154.5" stroke="#E0E0E0" stroke-width="1" opacity="1"></path><path fill="none" d="M 43 146.5 L 590 146.5" stroke="#E0E0E0" stroke-width="1" opacity="1"></path><path fill="none" d="M 43 137.5 L 590 137.5" stroke="#E0E0E0" stroke-width="1" opacity="1"></path><path fill="none" d="M 43 129.5 L 590 129.5" stroke="#E0E0E0" stroke-width="1" opacity="1"></path><path fill="none" d="M 43 121.5 L 590 121.5" stroke="#E0E0E0" stroke-width="1" opacity="1"></path><path fill="none" d="M 43 112.5 L 590 112.5" stroke="#E0E0E0" stroke-width="1" opacity="1"></path><path fill="none" d="M 43 104.5 L 590 104.5" stroke="#E0E0E0" stroke-width="1" opacity="1"></path><path fill="none" d="M 43 95.5 L 590 95.5" stroke="#E0E0E0" stroke-width="1" opacity="1"></path><path fill="none" d="M 43 87.5 L 590 87.5" stroke="#E0E0E0" stroke-width="1" opacity="1"></path><path fill="none" d="M 43 79.5 L 590 79.5" stroke="#E0E0E0" stroke-width="1" opacity="1"></path><path fill="none" d="M 43 70.5 L 590 70.5" stroke="#E0E0E0" stroke-width="1" opacity="1"></path><path fill="none" d="M 43 62.5 L 590 62.5" stroke="#E0E0E0" stroke-width="1" opacity="1"></path><path fill="none" d="M 43 53.5 L 590 53.5" stroke="#E0E0E0" stroke-width="1" opacity="1"></path><path fill="none" d="M 43 297.5 L 590 297.5" stroke="#D8D8D8" stroke-width="1"  opacity="1"></path><path fill="none" d="M 43 255.5 L 590 255.5" stroke="#D8D8D8" stroke-width="1"  opacity="1"></path><path fill="none" d="M 43 213.5 L 590 213.5" stroke="#D8D8D8" stroke-width="1"  opacity="1"></path><path fill="none" d="M 43 171.5 L 590 171.5" stroke="#D8D8D8" stroke-width="1"  opacity="1"></path><path fill="none" d="M 43 129.5 L 590 129.5" stroke="#D8D8D8" stroke-width="1"  opacity="1"></path><path fill="none" d="M 43 87.5 L 590 87.5" stroke="#D8D8D8" stroke-width="1"  opacity="1"></path><path fill="none" d="M 43 44.5 L 590 44.5" stroke="#D8D8D8" stroke-width="1"  opacity="1"></path></g><g class="highcharts-grid" ></g><g class="highcharts-axis" ><path fill="none" d="M 106.5 297 L 106.5 307" stroke="#C0D0E0" stroke-width="1" opacity="1"></path><path fill="none" d="M 171.5 297 L 171.5 307" stroke="#C0D0E0" stroke-width="1" opacity="1"></path><path fill="none" d="M 236.5 297 L 236.5 307" stroke="#C0D0E0" stroke-width="1" opacity="1"></path><path fill="none" d="M 299.5 297 L 299.5 307" stroke="#C0D0E0" stroke-width="1" opacity="1"></path><path fill="none" d="M 354.5 297 L 354.5 307" stroke="#C0D0E0" stroke-width="1" opacity="1"></path><path fill="none" d="M 419.5 297 L 419.5 307" stroke="#C0D0E0" stroke-width="1" opacity="1"></path><path fill="none" d="M 484.5 297 L 484.5 307" stroke="#C0D0E0" stroke-width="1" opacity="1"></path><path fill="none" d="M 549.5 297 L 549.5 307" stroke="#C0D0E0" stroke-width="1" opacity="1"></path><path fill="none" d="M 43 297.5 L 590 297.5" stroke="#C0D0E0" stroke-width="1" ></path></g><g class="highcharts-axis" ></g><g class="highcharts-axis" ></g><g class="highcharts-axis" ></g><g class="highcharts-series-group" ><g class="highcharts-series highcharts-series-0"  transform="translate(43,45) scale(1 1)" clip-path="url(#highcharts-24)"><path fill="none" d="M 0 55.6445563474511 L 13.02380952382075 55.975646507813934 L 26.047619047615303 56.306683047024876 L 39.07142857143606 56.63766597376787 L 52.095238095230606 56.968595296725425 L 65.11904761905136 57.96106172969246 L 78.14285714284591 58.291776724307965 L 91.16666666666667 58.622438158530315 L 104.19047619048742 58.9530460410345 L 117.21428571428197 59.28360038049311 L 130.23809523810272 60.27494222730229 L 143.26190476189728 60.605282481278664 L 156.28571428571803 60.93556923555286 L 169.30952380951257 61.265802498789185 L 182.33333333333334 61.59598227965094 L 195.3571428571541 62.586200814596396 L 208.38095238094863 62.9161667525608 L 221.40476190476937 63.24607925144511 L 234.42857142856394 63.57593831990343 L 247.4523809523847 63.90574396658897 L 260.4761904761792 65.22443250861937 L 273.5 65.55397117619066 L 286.5238095238208 65.8834564738795 L 299.5476190476153 66.21288841032867 L 312.57142857143606 67.20086413865445 L 325.5952380952306 67.53008271655278 L 338.61904761905134 67.85924797640797 L 351.6428571428459 68.18835992685541 L 364.6666666666667 68.51741857652797 L 377.6904761904874 69.50427480721464 L 390.71428571428197 69.83312034009788 L 403.73809523810274 70.16191261535386 L 416.76190476189726 70.49065164160777 L 429.78571428571803 70.8193374274835 L 442.8095238095126 71.8050754290594 L 455.8333333333333 72.13354833963314 L 468.8571428571541 72.4619680529268 L 481.88095238094866 72.79033457755637 L 494.9047619047694 73.11864792213561 L 507.92857142856394 74.10326896169141 L 520.9523809523847 74.43136967218257 L 533.9761904761792 74.75941724567252 L 547 75.08741169076765" stroke="#F3785C" stroke-width="2"  stroke-linejoin="round" stroke-linecap="round"></path></g><g class="highcharts-markers highcharts-series-0"  transform="translate(43,45) scale(1 1)" clip-path="none"></g><g class="highcharts-series highcharts-series-1"  transform="translate(43,45) scale(1 1)" clip-path="url(#highcharts-24)"><path fill="#43B2AA" d="M 0 19.739999999999952 C 0 19.739999999999952 7.81428571429245 46.200000000000045 13.02380952382075 46.200000000000045 C 18.23333333333857 46.200000000000045 20.838095238097484 23.09999999999988 26.047619047615303 23.09999999999988 C 31.257142857143606 23.09999999999988 33.86190476190775 39.69 39.07142857143606 39.69 C 44.28095238095388 39.69 46.88571428571279 23.09999999999988 52.095238095230606 23.09999999999988 C 57.304761904758905 23.09999999999988 59.90952380952306 52.9199999999999 65.11904761905136 52.9199999999999 C 70.32857142856918 52.9199999999999 72.9333333333281 52.9199999999999 78.14285714284591 52.9199999999999 C 83.3523809523742 52.9199999999999 85.95714285713836 52.9199999999999 91.16666666666667 52.9199999999999 C 96.37619047619496 52.9199999999999 98.98095238095911 44.982000000005286 104.19047619048742 39.69 C 109.40000000000524 34.39800000000537 112.00476190476415 26.460000000000093 117.21428571428197 26.460000000000093 C 122.42380952381026 26.460000000000093 125.02857142857442 69.29999999999995 130.23809523810272 69.29999999999995 C 135.44761904762055 69.29999999999995 138.05238095237945 69.29999999999995 143.26190476189728 69.29999999999995 C 148.47142857142558 69.29999999999995 151.07619047618974 89.25 156.28571428571803 89.25 C 161.49523809523583 89.25 164.09999999999474 76.0200000000001 169.30952380951257 76.0200000000001 C 174.5190476190409 76.0200000000001 177.12380952380505 79.25400000000015 182.33333333333334 82.53000000000014 C 187.54285714286164 85.80600000000015 190.14761904762582 92.40000000000012 195.3571428571541 92.40000000000012 C 200.56666666667192 92.40000000000012 203.1714285714308 92.40000000000012 208.38095238094863 92.40000000000012 C 213.59047619047692 92.40000000000012 216.19523809524108 92.40000000000012 221.40476190476937 95.76000000000005 C 226.61428571428718 99.11999999999998 229.2190476190461 125.36999999999998 234.42857142856394 125.36999999999998 C 239.63809523809223 125.36999999999998 242.2428571428564 85.89000000000007 247.4523809523847 85.89000000000007 C 252.6619047619025 85.89000000000007 255.26666666666142 115.5 260.4761904761792 115.5 C 265.68571428570755 115.5 268.2904761904717 56.07000000000005 273.5 56.07000000000005 C 278.7095238095283 56.07000000000005 281.31428571429245 85.89000000000007 286.5238095238208 85.89000000000007 C 291.7333333333386 85.89000000000007 294.3380952380975 85.89000000000007 299.5476190476153 82.53000000000014 C 304.75714285714355 79.17000000000021 307.3619047619078 52.9199999999999 312.57142857143606 52.9199999999999 C 317.78095238095386 52.9199999999999 320.3857142857128 125.36999999999998 325.5952380952306 125.36999999999998 C 330.80476190475895 125.36999999999998 333.409523809523 85.13400000001585 338.61904761905134 69.29999999999995 C 343.8285714285692 53.46600000001586 346.43333333332805 54.095999999992145 351.6428571428459 46.200000000000045 C 356.8523809523742 38.30399999999218 359.45714285713836 29.82000000000005 364.6666666666667 29.82000000000005 C 369.87619047619495 29.82000000000005 372.48095238095914 40.27799999999412 377.6904761904874 46.200000000000045 C 382.9000000000052 52.12199999999408 385.50476190476417 59.42999999999995 390.71428571428197 59.42999999999995 C 395.9238095238103 59.42999999999995 398.5285714285745 50.77800000000812 403.73809523810274 42.840000000000146 C 408.94761904762055 34.902000000008115 411.55238095237945 19.739999999999952 416.76190476189726 19.739999999999952 C 421.9714285714255 19.739999999999952 424.5761904761897 59.42999999999995 429.78571428571803 59.42999999999995 C 434.9952380952358 59.42999999999995 437.5999999999948 49.56 442.8095238095126 49.56 C 448.01904761904086 49.56 450.623809523805 112.34999999999988 455.8333333333333 112.34999999999988 C 461.04285714286164 112.34999999999988 463.6476190476258 56.07000000000005 468.8571428571541 56.07000000000005 C 474.0666666666719 56.07000000000005 476.6714285714308 145.32000000000005 481.88095238094866 145.32000000000005 C 487.090476190477 145.32000000000005 489.69523809524105 39.69 494.9047619047694 39.69 C 500.1142857142871 39.69 502.71904761904614 79.1699999999999 507.92857142856394 79.1699999999999 C 513.1380952380923 79.1699999999999 515.7428571428563 69.88800000000398 520.9523809523847 65.94 C 526.1619047619025 61.99200000000401 528.7666666666614 64.67999999999462 533.9761904761792 59.42999999999995 C 539.1857142857076 54.17999999999462 547 39.69 547 39.69 L 547 252 C 547 252 539.1857142857076 252 533.9761904761792 252 C 528.7666666666614 252 526.1619047619025 252 520.9523809523847 252 C 515.7428571428563 252 513.1380952380923 252 507.92857142856394 252 C 502.71904761904614 252 500.1142857142871 252 494.9047619047694 252 C 489.69523809524105 252 487.090476190477 252 481.88095238094866 252 C 476.6714285714308 252 474.0666666666719 252 468.8571428571541 252 C 463.6476190476258 252 461.04285714286164 252 455.8333333333333 252 C 450.623809523805 252 448.01904761904086 252 442.8095238095126 252 C 437.5999999999948 252 434.9952380952358 252 429.78571428571803 252 C 424.5761904761897 252 421.9714285714255 252 416.76190476189726 252 C 411.55238095237945 252 408.94761904762055 252 403.73809523810274 252 C 398.5285714285745 252 395.9238095238103 252 390.71428571428197 252 C 385.50476190476417 252 382.9000000000052 252 377.6904761904874 252 C 372.48095238095914 252 369.87619047619495 252 364.6666666666667 252 C 359.45714285713836 252 356.8523809523742 252 351.6428571428459 252 C 346.43333333332805 252 343.8285714285692 252 338.61904761905134 252 C 333.409523809523 252 330.80476190475895 252 325.5952380952306 252 C 320.3857142857128 252 317.78095238095386 252 312.57142857143606 252 C 307.3619047619078 252 304.75714285714355 252 299.5476190476153 252 C 294.3380952380975 252 291.7333333333386 252 286.5238095238208 252 C 281.31428571429245 252 278.7095238095283 252 273.5 252 C 268.2904761904717 252 265.68571428570755 252 260.4761904761792 252 C 255.26666666666142 252 252.6619047619025 252 247.4523809523847 252 C 242.2428571428564 252 239.63809523809223 252 234.42857142856394 252 C 229.2190476190461 252 226.61428571428718 252 221.40476190476937 252 C 216.19523809524108 252 213.59047619047692 252 208.38095238094863 252 C 203.1714285714308 252 200.56666666667192 252 195.3571428571541 252 C 190.14761904762582 252 187.54285714286164 252 182.33333333333334 252 C 177.12380952380505 252 174.5190476190409 252 169.30952380951257 252 C 164.09999999999474 252 161.49523809523583 252 156.28571428571803 252 C 151.07619047618974 252 148.47142857142558 252 143.26190476189728 252 C 138.05238095237945 252 135.44761904762055 252 130.23809523810272 252 C 125.02857142857442 252 122.42380952381026 252 117.21428571428197 252 C 112.00476190476415 252 109.40000000000524 252 104.19047619048742 252 C 98.98095238095911 252 96.37619047619496 252 91.16666666666667 252 C 85.95714285713836 252 83.3523809523742 252 78.14285714284591 252 C 72.9333333333281 252 70.32857142856918 252 65.11904761905136 252 C 59.90952380952306 252 57.304761904758905 252 52.095238095230606 252 C 46.88571428571279 252 44.28095238095388 252 39.07142857143606 252 C 33.86190476190775 252 31.257142857143606 252 26.047619047615303 252 C 20.838095238097484 252 18.23333333333857 252 13.02380952382075 252 C 7.81428571429245 252 0 252 0 252"  fill-opacity="0.75"></path><path fill="none" d="M 0 19.739999999999952 C 0 19.739999999999952 7.81428571429245 46.200000000000045 13.02380952382075 46.200000000000045 C 18.23333333333857 46.200000000000045 20.838095238097484 23.09999999999988 26.047619047615303 23.09999999999988 C 31.257142857143606 23.09999999999988 33.86190476190775 39.69 39.07142857143606 39.69 C 44.28095238095388 39.69 46.88571428571279 23.09999999999988 52.095238095230606 23.09999999999988 C 57.304761904758905 23.09999999999988 59.90952380952306 52.9199999999999 65.11904761905136 52.9199999999999 C 70.32857142856918 52.9199999999999 72.9333333333281 52.9199999999999 78.14285714284591 52.9199999999999 C 83.3523809523742 52.9199999999999 85.95714285713836 52.9199999999999 91.16666666666667 52.9199999999999 C 96.37619047619496 52.9199999999999 98.98095238095911 44.982000000005286 104.19047619048742 39.69 C 109.40000000000524 34.39800000000537 112.00476190476415 26.460000000000093 117.21428571428197 26.460000000000093 C 122.42380952381026 26.460000000000093 125.02857142857442 69.29999999999995 130.23809523810272 69.29999999999995 C 135.44761904762055 69.29999999999995 138.05238095237945 69.29999999999995 143.26190476189728 69.29999999999995 C 148.47142857142558 69.29999999999995 151.07619047618974 89.25 156.28571428571803 89.25 C 161.49523809523583 89.25 164.09999999999474 76.0200000000001 169.30952380951257 76.0200000000001 C 174.5190476190409 76.0200000000001 177.12380952380505 79.25400000000015 182.33333333333334 82.53000000000014 C 187.54285714286164 85.80600000000015 190.14761904762582 92.40000000000012 195.3571428571541 92.40000000000012 C 200.56666666667192 92.40000000000012 203.1714285714308 92.40000000000012 208.38095238094863 92.40000000000012 C 213.59047619047692 92.40000000000012 216.19523809524108 92.40000000000012 221.40476190476937 95.76000000000005 C 226.61428571428718 99.11999999999998 229.2190476190461 125.36999999999998 234.42857142856394 125.36999999999998 C 239.63809523809223 125.36999999999998 242.2428571428564 85.89000000000007 247.4523809523847 85.89000000000007 C 252.6619047619025 85.89000000000007 255.26666666666142 115.5 260.4761904761792 115.5 C 265.68571428570755 115.5 268.2904761904717 56.07000000000005 273.5 56.07000000000005 C 278.7095238095283 56.07000000000005 281.31428571429245 85.89000000000007 286.5238095238208 85.89000000000007 C 291.7333333333386 85.89000000000007 294.3380952380975 85.89000000000007 299.5476190476153 82.53000000000014 C 304.75714285714355 79.17000000000021 307.3619047619078 52.9199999999999 312.57142857143606 52.9199999999999 C 317.78095238095386 52.9199999999999 320.3857142857128 125.36999999999998 325.5952380952306 125.36999999999998 C 330.80476190475895 125.36999999999998 333.409523809523 85.13400000001585 338.61904761905134 69.29999999999995 C 343.8285714285692 53.46600000001586 346.43333333332805 54.095999999992145 351.6428571428459 46.200000000000045 C 356.8523809523742 38.30399999999218 359.45714285713836 29.82000000000005 364.6666666666667 29.82000000000005 C 369.87619047619495 29.82000000000005 372.48095238095914 40.27799999999412 377.6904761904874 46.200000000000045 C 382.9000000000052 52.12199999999408 385.50476190476417 59.42999999999995 390.71428571428197 59.42999999999995 C 395.9238095238103 59.42999999999995 398.5285714285745 50.77800000000812 403.73809523810274 42.840000000000146 C 408.94761904762055 34.902000000008115 411.55238095237945 19.739999999999952 416.76190476189726 19.739999999999952 C 421.9714285714255 19.739999999999952 424.5761904761897 59.42999999999995 429.78571428571803 59.42999999999995 C 434.9952380952358 59.42999999999995 437.5999999999948 49.56 442.8095238095126 49.56 C 448.01904761904086 49.56 450.623809523805 112.34999999999988 455.8333333333333 112.34999999999988 C 461.04285714286164 112.34999999999988 463.6476190476258 56.07000000000005 468.8571428571541 56.07000000000005 C 474.0666666666719 56.07000000000005 476.6714285714308 145.32000000000005 481.88095238094866 145.32000000000005 C 487.090476190477 145.32000000000005 489.69523809524105 39.69 494.9047619047694 39.69 C 500.1142857142871 39.69 502.71904761904614 79.1699999999999 507.92857142856394 79.1699999999999 C 513.1380952380923 79.1699999999999 515.7428571428563 69.88800000000398 520.9523809523847 65.94 C 526.1619047619025 61.99200000000401 528.7666666666614 64.67999999999462 533.9761904761792 59.42999999999995 C 539.1857142857076 54.17999999999462 547 39.69 547 39.69" stroke="#43B2AA" stroke-width="2"  stroke-linejoin="round" stroke-linecap="round"></path></g><g class="highcharts-markers highcharts-series-1"  transform="translate(43,45) scale(1 1)" clip-path="none"></g><g class="highcharts-series highcharts-series-2"  transform="translate(43,45) scale(1 1)" clip-path="url(#highcharts-24)"><path fill="#194F76" d="M 0 0"  fill-opacity="0.75"></path></g><g class="highcharts-markers highcharts-series-2"  transform="translate(43,45) scale(1 1)" clip-path="none"></g><g class="highcharts-series highcharts-series-3"  transform="translate(43,345) scale(1 1)" clip-path="url(#highcharts-25)"><path fill="#4572A7" d="M 0 3.3333333333333357 C 0 3.3333333333333357 7.81428571429245 3.6739294322429785 13.02380952382075 3.9009628550205804 C 18.23333333333857 4.127996277797725 20.838095238097484 4.241503793260507 26.047619047615303 4.468500447220201 C 31.257142857143606 4.695497101180352 33.86190476190775 4.808986233722807 39.07142857143606 5.035946124820192 C 44.28095238095388 5.262906015917121 46.88571428571279 5.149527130289894 52.095238095230606 5.603299902705984 C 57.304761904758905 6.0570726751229875 59.90952380952306 6.851110704494891 65.11904761905136 7.304809986902924 C 70.32857142856918 7.758509269310045 72.9333333333281 7.645020148671975 78.14285714284591 7.871796314743868 C 83.3523809523742 8.098572480816216 85.95714285713836 8.21195137834539 91.16666666666667 8.438690817263527 C 96.37619047619496 8.665430256181665 98.98095238095911 8.778790791621931 104.19047619048742 9.005493509334556 C 109.40000000000524 9.232196227046725 112.00476190476415 9.118945813598943 117.21428571428197 9.57220440582551 C 122.42380952381026 10.025462998052987 125.02857142857442 10.818601284978149 130.23809523810272 11.271786470469667 C 135.44761904762055 11.724971655960275 138.05238095237945 11.611611132410802 143.26190476189728 11.838130333280823 C 148.47142857142558 12.064649534151298 151.07619047618974 12.177899959488016 156.28571428571803 12.40438247482091 C 161.49523809523583 12.630864990153347 164.09999999999474 12.74409707420791 169.30952380951257 12.970542909944147 C 174.5190476190409 13.196988745680839 177.12380952380505 13.083866658836563 182.33333333333334 13.536611653503236 C 187.54285714286164 13.98935664816991 190.14761904762582 14.781596212167575 195.3571428571541 15.23426788327751 C 200.56666666667192 15.68693955438654 203.1714285714308 15.573707482209434 208.38095238094863 15.799970009050654 C 213.59047619047692 16.026232535892326 216.19523809524108 16.139354634611326 221.40476190476937 16.365580517484744 C 226.61428571428718 16.591806400357708 229.2190476190461 16.704910178577475 234.42857142856394 16.93109942341661 C 239.63809523809223 17.1572886682562 242.2428571428564 16.93128253942527 247.4523809523847 17.496526741681556 C 252.6619047619025 18.061770943936704 255.26666666666142 19.192350832318787 260.4761904761792 19.757320434695202 C 265.68571428570755 20.322290037071618 268.2904761904717 20.096320495862003 273.5 20.322290037071618 C 278.7095238095283 20.548259578281233 281.31428571429245 20.661235196051855 286.5238095238208 20.88716814074327 C 291.7333333333386 21.113101085434227 294.3380952380975 21.00023521573463 299.5476190476153 21.451954760527553 C 304.75714285714355 21.903674305321385 307.3619047619078 22.69411947739829 312.57142857143606 23.14576586471015 C 317.78095238095386 23.597412252021105 320.3857142857128 23.484436646101063 325.5952380952306 23.71018669708459 C 330.80476190475895 23.935936748068578 333.409523809523 24.048802629616073 338.61904761905134 24.27451611962894 C 343.8285714285692 24.50022960964136 346.43333333332805 24.61307721218548 351.6428571428459 24.838754147147807 C 356.8523809523742 25.06443108211058 359.45714285713836 24.95169310327933 364.6666666666667 25.402900794441692 C 369.87619047619495 25.85410848560405 372.48095238095914 26.643657986382316 377.6904761904874 27.09479260295961 C 382.9000000000052 27.545927219536 385.50476190476417 27.433079628829937 390.71428571428197 27.658573877325907 C 395.9238095238103 27.884068125822335 398.5285714285745 27.99680611648737 403.73809523810274 28.222263845440594 C 408.94761904762055 28.447721574393363 411.55238095237945 28.560441306766844 416.76190476189726 28.78586252209088 C 421.9714285714255 29.011283737415372 424.5761904761897 28.89867350453708 429.78571428571803 29.349369922061925 C 434.9952380952358 29.800066339585854 437.5999999999948 30.588721183971977 442.8095238095126 31.039344609712806 C 448.01904761904086 31.48996803545454 450.623809523805 31.377248314904282 455.8333333333333 31.602487050768325 C 461.04285714286164 31.82772578663237 463.6476190476258 31.940336031330812 468.8571428571541 32.16553828903304 C 474.0666666666719 32.390740546734804 476.6714285714308 32.50333255383077 481.88095238094866 32.7284983392783 C 487.090476190477 32.953664124726295 489.69523809524105 32.841181493049305 494.9047619047694 33.291367216271865 C 500.1142857142871 33.74155293949351 502.71904761904614 34.529314141241606 507.92857142856394 34.97942695538883 C 513.1380952380923 35.42953976953697 515.7428571428563 35.3169477742509 520.9523809523847 35.54193128701028 C 526.1619047619025 35.7669147997692 528.7666666666614 35.87939744325352 533.9761904761792 36.104344519184565 C 539.1857142857076 36.329291595116075 547 36.666666666666664 547 36.666666666666664 L 547 40 C 547 40 539.1857142857076 40 533.9761904761792 40 C 528.7666666666614 40 526.1619047619025 40 520.9523809523847 40 C 515.7428571428563 40 513.1380952380923 40 507.92857142856394 40 C 502.71904761904614 40 500.1142857142871 40 494.9047619047694 40 C 489.69523809524105 40 487.090476190477 40 481.88095238094866 40 C 476.6714285714308 40 474.0666666666719 40 468.8571428571541 40 C 463.6476190476258 40 461.04285714286164 40 455.8333333333333 40 C 450.623809523805 40 448.01904761904086 40 442.8095238095126 40 C 437.5999999999948 40 434.9952380952358 40 429.78571428571803 40 C 424.5761904761897 40 421.9714285714255 40 416.76190476189726 40 C 411.55238095237945 40 408.94761904762055 40 403.73809523810274 40 C 398.5285714285745 40 395.9238095238103 40 390.71428571428197 40 C 385.50476190476417 40 382.9000000000052 40 377.6904761904874 40 C 372.48095238095914 40 369.87619047619495 40 364.6666666666667 40 C 359.45714285713836 40 356.8523809523742 40 351.6428571428459 40 C 346.43333333332805 40 343.8285714285692 40 338.61904761905134 40 C 333.409523809523 40 330.80476190475895 40 325.5952380952306 40 C 320.3857142857128 40 317.78095238095386 40 312.57142857143606 40 C 307.3619047619078 40 304.75714285714355 40 299.5476190476153 40 C 294.3380952380975 40 291.7333333333386 40 286.5238095238208 40 C 281.31428571429245 40 278.7095238095283 40 273.5 40 C 268.2904761904717 40 265.68571428570755 40 260.4761904761792 40 C 255.26666666666142 40 252.6619047619025 40 247.4523809523847 40 C 242.2428571428564 40 239.63809523809223 40 234.42857142856394 40 C 229.2190476190461 40 226.61428571428718 40 221.40476190476937 40 C 216.19523809524108 40 213.59047619047692 40 208.38095238094863 40 C 203.1714285714308 40 200.56666666667192 40 195.3571428571541 40 C 190.14761904762582 40 187.54285714286164 40 182.33333333333334 40 C 177.12380952380505 40 174.5190476190409 40 169.30952380951257 40 C 164.09999999999474 40 161.49523809523583 40 156.28571428571803 40 C 151.07619047618974 40 148.47142857142558 40 143.26190476189728 40 C 138.05238095237945 40 135.44761904762055 40 130.23809523810272 40 C 125.02857142857442 40 122.42380952381026 40 117.21428571428197 40 C 112.00476190476415 40 109.40000000000524 40 104.19047619048742 40 C 98.98095238095911 40 96.37619047619496 40 91.16666666666667 40 C 85.95714285713836 40 83.3523809523742 40 78.14285714284591 40 C 72.9333333333281 40 70.32857142856918 40 65.11904761905136 40 C 59.90952380952306 40 57.304761904758905 40 52.095238095230606 40 C 46.88571428571279 40 44.28095238095388 40 39.07142857143606 40 C 33.86190476190775 40 31.257142857143606 40 26.047619047615303 40 C 20.838095238097484 40 18.23333333333857 40 13.02380952382075 40 C 7.81428571429245 40 0 40 0 40"  fill-opacity="0.05"></path><path fill="none" d="M 0 3.3333333333333357 C 0 3.3333333333333357 7.81428571429245 3.6739294322429785 13.02380952382075 3.9009628550205804 C 18.23333333333857 4.127996277797725 20.838095238097484 4.241503793260507 26.047619047615303 4.468500447220201 C 31.257142857143606 4.695497101180352 33.86190476190775 4.808986233722807 39.07142857143606 5.035946124820192 C 44.28095238095388 5.262906015917121 46.88571428571279 5.149527130289894 52.095238095230606 5.603299902705984 C 57.304761904758905 6.0570726751229875 59.90952380952306 6.851110704494891 65.11904761905136 7.304809986902924 C 70.32857142856918 7.758509269310045 72.9333333333281 7.645020148671975 78.14285714284591 7.871796314743868 C 83.3523809523742 8.098572480816216 85.95714285713836 8.21195137834539 91.16666666666667 8.438690817263527 C 96.37619047619496 8.665430256181665 98.98095238095911 8.778790791621931 104.19047619048742 9.005493509334556 C 109.40000000000524 9.232196227046725 112.00476190476415 9.118945813598943 117.21428571428197 9.57220440582551 C 122.42380952381026 10.025462998052987 125.02857142857442 10.818601284978149 130.23809523810272 11.271786470469667 C 135.44761904762055 11.724971655960275 138.05238095237945 11.611611132410802 143.26190476189728 11.838130333280823 C 148.47142857142558 12.064649534151298 151.07619047618974 12.177899959488016 156.28571428571803 12.40438247482091 C 161.49523809523583 12.630864990153347 164.09999999999474 12.74409707420791 169.30952380951257 12.970542909944147 C 174.5190476190409 13.196988745680839 177.12380952380505 13.083866658836563 182.33333333333334 13.536611653503236 C 187.54285714286164 13.98935664816991 190.14761904762582 14.781596212167575 195.3571428571541 15.23426788327751 C 200.56666666667192 15.68693955438654 203.1714285714308 15.573707482209434 208.38095238094863 15.799970009050654 C 213.59047619047692 16.026232535892326 216.19523809524108 16.139354634611326 221.40476190476937 16.365580517484744 C 226.61428571428718 16.591806400357708 229.2190476190461 16.704910178577475 234.42857142856394 16.93109942341661 C 239.63809523809223 17.1572886682562 242.2428571428564 16.93128253942527 247.4523809523847 17.496526741681556 C 252.6619047619025 18.061770943936704 255.26666666666142 19.192350832318787 260.4761904761792 19.757320434695202 C 265.68571428570755 20.322290037071618 268.2904761904717 20.096320495862003 273.5 20.322290037071618 C 278.7095238095283 20.548259578281233 281.31428571429245 20.661235196051855 286.5238095238208 20.88716814074327 C 291.7333333333386 21.113101085434227 294.3380952380975 21.00023521573463 299.5476190476153 21.451954760527553 C 304.75714285714355 21.903674305321385 307.3619047619078 22.69411947739829 312.57142857143606 23.14576586471015 C 317.78095238095386 23.597412252021105 320.3857142857128 23.484436646101063 325.5952380952306 23.71018669708459 C 330.80476190475895 23.935936748068578 333.409523809523 24.048802629616073 338.61904761905134 24.27451611962894 C 343.8285714285692 24.50022960964136 346.43333333332805 24.61307721218548 351.6428571428459 24.838754147147807 C 356.8523809523742 25.06443108211058 359.45714285713836 24.95169310327933 364.6666666666667 25.402900794441692 C 369.87619047619495 25.85410848560405 372.48095238095914 26.643657986382316 377.6904761904874 27.09479260295961 C 382.9000000000052 27.545927219536 385.50476190476417 27.433079628829937 390.71428571428197 27.658573877325907 C 395.9238095238103 27.884068125822335 398.5285714285745 27.99680611648737 403.73809523810274 28.222263845440594 C 408.94761904762055 28.447721574393363 411.55238095237945 28.560441306766844 416.76190476189726 28.78586252209088 C 421.9714285714255 29.011283737415372 424.5761904761897 28.89867350453708 429.78571428571803 29.349369922061925 C 434.9952380952358 29.800066339585854 437.5999999999948 30.588721183971977 442.8095238095126 31.039344609712806 C 448.01904761904086 31.48996803545454 450.623809523805 31.377248314904282 455.8333333333333 31.602487050768325 C 461.04285714286164 31.82772578663237 463.6476190476258 31.940336031330812 468.8571428571541 32.16553828903304 C 474.0666666666719 32.390740546734804 476.6714285714308 32.50333255383077 481.88095238094866 32.7284983392783 C 487.090476190477 32.953664124726295 489.69523809524105 32.841181493049305 494.9047619047694 33.291367216271865 C 500.1142857142871 33.74155293949351 502.71904761904614 34.529314141241606 507.92857142856394 34.97942695538883 C 513.1380952380923 35.42953976953697 515.7428571428563 35.3169477742509 520.9523809523847 35.54193128701028 C 526.1619047619025 35.7669147997692 528.7666666666614 35.87939744325352 533.9761904761792 36.104344519184565 C 539.1857142857076 36.329291595116075 547 36.666666666666664 547 36.666666666666664" stroke="#4572A7" stroke-width="1"  stroke-linejoin="round" stroke-linecap="round"></path></g><g class="highcharts-markers highcharts-series-3"  transform="translate(43,345) scale(1 1)" clip-path="none"></g></g><g class="highcharts-navigator" ><rect fill="rgb(128,179,236)" fill-opacity="0.3" style="cursor:ew-resize;" x="43" y="345" width="547" height="40"></rect><path fill="none" stroke="#b2b1b6" stroke-width="1" d="M 43 345.5 L 42.5 345.5 42.5 385.5 L 589.5 385.5 L 589.5 345.5 590 345.5 M 43.5 345.5 L 589.5 345.5"></path></g><g class="highcharts-axis-labels highcharts-xaxis-labels" ><text x="107.21461640210518" style="color:#606060;cursor:default;font-size:12px;font-family:'myriad-pro','myriad','myriad pro','lucida grande','helvetica neue','helvetica','sans-serif';fill:#606060;" text-anchor="middle" transform="translate(0,0)" y="317" opacity="1"><tspan>14. Aug</tspan></text><text x="172.33366402115652" style="color:#606060;cursor:default;font-size:12px;font-family:'myriad-pro','myriad','myriad pro','lucida grande','helvetica neue','helvetica','sans-serif';fill:#606060;" text-anchor="middle" transform="translate(0,0)" y="317" opacity="1"><tspan>21. Aug</tspan></text><text x="237.4527116402079" style="color:#606060;cursor:default;font-size:12px;font-family:'myriad-pro','myriad','myriad pro','lucida grande','helvetica neue','helvetica','sans-serif';fill:#606060;" text-anchor="middle" transform="translate(0,0)" y="317" opacity="1"><tspan>28. Aug</tspan></text><text x="299.54191468254714" style="color:#606060;cursor:default;font-size:12px;font-family:'myriad-pro','myriad','myriad pro','lucida grande','helvetica neue','helvetica','sans-serif';fill:#606060;" text-anchor="middle" transform="translate(0,0)" y="317" opacity="1"><tspan>4. Sep</tspan></text><text x="354.66699735448987" style="color:#606060;cursor:default;font-size:12px;font-family:'myriad-pro','myriad','myriad pro','lucida grande','helvetica neue','helvetica','sans-serif';fill:#606060;" text-anchor="middle" transform="translate(0,0)" y="317" opacity="1"><tspan>11. Sep</tspan></text><text x="419.7860449735412" style="color:#606060;cursor:default;font-size:12px;font-family:'myriad-pro','myriad','myriad pro','lucida grande','helvetica neue','helvetica','sans-serif';fill:#606060;" text-anchor="middle" transform="translate(0,0)" y="317" opacity="1"><tspan>18. Sep</tspan></text><text x="484.9050925925926" style="color:#606060;cursor:default;font-size:12px;font-family:'myriad-pro','myriad','myriad pro','lucida grande','helvetica neue','helvetica','sans-serif';fill:#606060;" text-anchor="middle" transform="translate(0,0)" y="317" opacity="1"><tspan>25. Sep</tspan></text><text x="550.024140211644" style="color:#606060;cursor:default;font-size:12px;font-family:'myriad-pro','myriad','myriad pro','lucida grande','helvetica neue','helvetica','sans-serif';fill:#606060;" text-anchor="middle" transform="translate(0,0)" y="317" opacity="1"><tspan>2. Oct</tspan></text></g><g class="highcharts-axis-labels highcharts-xaxis-labels" ><text x="175.33366402115652" style="color:#888;cursor:default;font-size:12px;font-family:'myriad-pro','myriad','myriad pro','lucida grande','helvetica neue','helvetica','sans-serif';fill:#888;width:172px;text-overflow:clip;" text-anchor="start" transform="translate(0,0)" y="381" opacity="1"><tspan>21. Aug</tspan></text><text x="302.54191468254714" style="color:#888;cursor:default;font-size:12px;font-family:'myriad-pro','myriad','myriad pro','lucida grande','helvetica neue','helvetica','sans-serif';fill:#888;width:172px;text-overflow:clip;" text-anchor="start" transform="translate(0,0)" y="381" opacity="1"><tspan>4. Sep</tspan></text><text x="422.7860449735412" style="color:#888;cursor:default;font-size:12px;font-family:'myriad-pro','myriad','myriad pro','lucida grande','helvetica neue','helvetica','sans-serif';fill:#888;width:172px;text-overflow:clip;" text-anchor="start" transform="translate(0,0)" y="381" opacity="1"><tspan>18. Sep</tspan></text><text x="553.024140211644" style="color:#888;cursor:default;font-size:12px;font-family:'myriad-pro','myriad','myriad pro','lucida grande','helvetica neue','helvetica','sans-serif';fill:#888;width:172px;text-overflow:clip;" text-anchor="start" transform="translate(0,0)" y="381" opacity="1"><tspan>2. Oct</tspan></text></g><g class="highcharts-axis-labels highcharts-yaxis-labels" ><text x="28" style="color:#606060;cursor:default;font-size:12px;font-family:'myriad-pro','myriad','myriad pro','lucida grande','helvetica neue','helvetica','sans-serif';fill:#606060;width:188px;text-overflow:clip;" text-anchor="end" transform="translate(0,0)" y="295" opacity="1">88</text><text x="28" style="color:#606060;cursor:default;font-size:12px;font-family:'myriad-pro','myriad','myriad pro','lucida grande','helvetica neue','helvetica','sans-serif';fill:#606060;width:188px;text-overflow:clip;" text-anchor="end" transform="translate(0,0)" y="253" opacity="1">90</text><text x="28" style="color:#606060;cursor:default;font-size:12px;font-family:'myriad-pro','myriad','myriad pro','lucida grande','helvetica neue','helvetica','sans-serif';fill:#606060;width:188px;text-overflow:clip;" text-anchor="end" transform="translate(0,0)" y="211" opacity="1">92</text><text x="28" style="color:#606060;cursor:default;font-size:12px;font-family:'myriad-pro','myriad','myriad pro','lucida grande','helvetica neue','helvetica','sans-serif';fill:#606060;width:188px;text-overflow:clip;" text-anchor="end" transform="translate(0,0)" y="169" opacity="1">94</text><text x="28" style="color:#606060;cursor:default;font-size:12px;font-family:'myriad-pro','myriad','myriad pro','lucida grande','helvetica neue','helvetica','sans-serif';fill:#606060;width:188px;text-overflow:clip;" text-anchor="end" transform="translate(0,0)" y="127" opacity="1">96</text><text x="28" style="color:#606060;cursor:default;font-size:12px;font-family:'myriad-pro','myriad','myriad pro','lucida grande','helvetica neue','helvetica','sans-serif';fill:#606060;width:188px;text-overflow:clip;" text-anchor="end" transform="translate(0,0)" y="85" opacity="1">98</text><text x="28" style="color:#606060;cursor:default;font-size:12px;font-family:'myriad-pro','myriad','myriad pro','lucida grande','helvetica neue','helvetica','sans-serif';fill:#606060;width:188px;text-overflow:clip;" text-anchor="end" transform="translate(0,0)" y="43" opacity="1">100</text></g><g class="highcharts-axis-labels highcharts-yaxis-labels" ></g><g class="highcharts-tooltip"  style="cursor:default;padding:0;pointer-events:none;white-space:nowrap;" transform="translate(0,-9999)"><path fill="rgb(0,0,0)" fill-opacity="0.9" d="M 3 0 L 13 0 C 16 0 16 0 16 3 L 16 13 C 16 16 16 16 13 16 L 3 16 C 0 16 0 16 0 13 L 0 3 C 0 0 0 0 3 0"></path><text x="8"  style="font-size:12px;font-family:'myriad-pro','myriad','myriad pro','lucida grande','helvetica neue','helvetica','sans-serif';color:#ffffff;fill:#ffffff;" y="20"></text></g><g class="highcharts-navigator-handle-right" style="cursor:ew-resize;"  transform="translate(590,357)"><rect x="-4.5" y="0.5" width="8" height="15" fill="#ebe7e8" stroke="#b2b1b6" stroke-width="1"></rect><path fill="#ebe7e8" d="M -1.5 4 L -1.5 12 M 0.5 4 L 0.5 12" stroke="#b2b1b6" stroke-width="1"></path></g><g class="highcharts-navigator-handle-left" style="cursor:ew-resize;"  transform="translate(43,357)"><rect x="-4.5" y="0.5" width="8" height="15" fill="#ebe7e8" stroke="#b2b1b6" stroke-width="1"></rect><path fill="#ebe7e8" d="M -1.5 4 L -1.5 12 M 0.5 4 L 0.5 12" stroke="#b2b1b6" stroke-width="1"></path></g></svg>